Coordinates
version=1
nRows=5
nColumns=40
inDegrees=yes

Units are S.I. units (second, meters, Newtons, ...)
Angles are in degrees.

endheader
time	pelvis_tilt	pelvis_list	pelvis_rotation	pelvis_tx	pelvis_ty	pelvis_tz	hip_flexion_r	hip_adduction_r	hip_rotation_r	knee_angle_r	knee_angle_r_beta	ankle_angle_r	subtalar_angle_r	mtp_angle_r	hip_flexion_l	hip_adduction_l	hip_rotation_l	knee_angle_l	knee_angle_l_beta	ankle_angle_l	subtalar_angle_l	mtp_angle_l	lumbar_extension	lumbar_bending	lumbar_rotation	arm_flex_r	arm_add_r	arm_rot_r	elbow_flex_r	pro_sup_r	wrist_flex_r	wrist_dev_r	arm_flex_l	arm_add_l	arm_rot_l	elbow_flex_l	pro_sup_l	wrist_flex_l	wrist_dev_l
     48.52000000	     -4.26956764	     -4.58126817	      0.50919432	      0.99203424	      0.92805360	      0.45743489	     17.89172836	      3.36246070	    -14.56492695	     16.22004890	     16.22004890	      5.15376984	     -2.61406425	     -3.83749443	      9.97487608	    -10.71730263	     -7.21361192	     44.10157957	     44.10157957	     10.16078160	    -16.81295381	     -5.38774145	     -7.56983370	      6.98893804	      2.44871667	      2.34749172	    -11.19089849	    -13.50480475	     26.62820009	     47.06910150	      0.00000000	      0.00000000	     18.29513860	    -11.12140051	     -3.32261383	     55.63958620	     46.88025797	      0.00000000	      0.00000000
     48.53200000	     -4.27101889	     -4.84768943	      0.87214605	      0.99204579	      0.92838708	      0.45917178	     17.20091256	      3.72949448	    -15.02997374	     15.85892136	     15.85892136	      5.44369958	     -2.32541826	     -3.96934027	     12.02084030	    -11.32913225	     -6.08890560	     47.81074163	     47.81074163	      8.95751623	    -17.59551879	     -4.50148722	     -7.54648417	      7.27367914	      2.24263156	      4.43349271	    -11.37810138	    -13.35834306	     27.77274769	     47.02178943	      0.00000000	      0.00000000	     17.16564191	    -10.70802725	     -2.95122786	     53.88716460	     46.81764755	      0.00000000	      0.00000000
     48.54400000	     -4.28301297	     -4.88655539	      1.16040875	      0.99188023	      0.92872701	      0.46058325	     16.55091909	      3.80606711	    -15.57973039	     15.56824141	     15.56824141	      5.72854167	     -1.63260570	     -4.54211706	     14.27950756	    -11.42311204	     -4.76807779	     51.76073689	     51.76073689	     10.43402230	    -17.36455700	      2.95951735	     -7.45747129	      7.32763742	      2.67049900	      5.79464091	    -11.93324221	    -11.66105987	     29.97592299	     46.77056080	      0.00000000	      0.00000000	     17.57983147	     -9.72956536	     -2.17137665	     48.60129800	     46.68840577	      0.00000000	      0.00000000
     48.55600000	     -4.17818600	     -5.10366512	      1.39371905	      0.99165543	      0.92906105	      0.46227758	     15.81865551	      4.15643313	    -15.88038682	     15.32232202	     15.32232202	      6.01817281	     -1.43666926	     -4.62031035	     16.08922717	    -11.86496758	     -3.88361152	     54.71868835	     54.71868835	      9.40387350	    -17.83329660	      3.27901561	     -7.65828536	      7.46913104	      2.85611398	      7.89266183	    -12.28821159	    -11.58742193	     31.07803657	     46.73353940	      0.00000000	      0.00000000	     16.37358892	     -9.15841168	     -1.84481369	     47.64251186	     46.63475512	      0.00000000	      0.00000000
     48.56800000	     -4.24094511	     -5.21389747	      1.69427403	      0.99117940	      0.92920696	      0.46354709	     15.22005824	      4.32901137	    -16.38935004	     14.97571663	     14.97571663	      6.31482645	     -0.80573712	     -4.87515237	     18.29487120	    -11.97021374	     -2.81003368	     57.71418702	     57.71418702	     10.37974368	    -17.72857696	      8.27474147	     -7.55877933	      7.63814548	      2.93482477	      9.36401747	    -12.89776823	     -9.66587370	     33.96711343	     46.45271349	      0.00000000	      0.00000000	     16.05998512	     -8.60983934	     -0.83846857	     43.75898102	     46.48016739	      0.00000000	      0.00000000
